<svg width="1440" height="1024" viewBox="0 0 1440 1024" fill="none" xmlns="http://www.w3.org/2000/svg">
<rect width="1440" height="1024" fill="#141414"/>
<path fill-rule="evenodd" clip-rule="evenodd" d="M2495.94 -503.191L2521.98 -392.382L2423.95 -369.343L2397.91 -480.152L2495.94 -503.191ZM2397.91 -480.152L2371.87 -590.962L2273.84 -567.923L2299.88 -457.114L2201.85 -434.076L2227.89 -323.267L2325.92 -346.305L2423.95 -369.343L2397.91 -480.152L2397.91 -480.152ZM2201.85 -434.076L2175.81 -544.885L2077.78 -521.846L2103.82 -411.037L2005.79 -387.999L1907.76 -364.961L1881.71 -475.77L1783.68 -452.731L1783.68 -452.731L1685.65 -429.693L1711.69 -318.884L1613.66 -295.846L1515.63 -272.807L1489.59 -383.616L1391.56 -360.578L1417.6 -249.769L1443.64 -138.96L1541.67 -161.998L1639.7 -185.036L1737.73 -208.075L1763.78 -97.2655L1861.81 -120.304L1959.84 -143.342L2057.87 -166.381L2083.91 -55.5714L2181.94 -78.6098L2207.98 32.1994L2234.02 143.009L2135.99 166.047L2109.95 55.2379L2011.92 78.2761L1985.88 -32.5331L1887.85 -9.49471L1913.89 101.314L2011.92 78.2761L2037.96 189.085L1939.93 212.124L1841.9 235.162L1867.94 345.971L1965.97 322.933L2064 299.895L2162.03 276.856L2188.08 387.665L2214.12 498.475L2312.15 475.436L2286.11 364.627L2188.08 387.665L2286.11 364.627L2384.14 341.589L2358.1 230.779L2260.07 253.818L2234.02 143.009L2332.06 119.97L2358.1 230.78L2456.13 207.741L2430.09 96.9321L2528.12 73.8938L2502.08 -36.9154L2404.05 -13.8772L2378 -124.686L2279.97 -101.648L2181.94 -78.6098L2155.9 -189.419L2253.93 -212.457L2227.89 -323.266L2129.86 -300.228L2031.83 -277.19L2129.86 -300.228L2103.82 -411.037L2201.85 -434.076ZM1907.76 -364.961L1809.72 -341.922L1835.77 -231.113L1933.8 -254.151L1907.76 -364.961ZM1319.57 -226.73L1293.53 -337.54L1195.5 -314.501L1097.46 -291.463L999.433 -268.425L999.433 -268.424L901.402 -245.386L901.402 -245.386L803.371 -222.348L829.412 -111.539L731.381 -88.5003L633.35 -65.4619L535.319 -42.4235L561.36 68.3856L659.391 45.3473L757.422 22.3089L855.454 -0.729414L953.485 -23.7678L927.443 -134.577L1025.47 -157.615L1051.52 -46.8062L1149.55 -69.8445L1123.51 -180.654L1221.54 -203.692L1247.58 -92.883L1345.61 -115.921L1319.57 -226.73ZM411.246 -130.194L437.287 -19.3851L463.328 91.4241L365.297 114.462L339.256 3.65323L313.215 -107.156L411.246 -130.194ZM143.193 49.7301L117.152 -61.0791L19.1204 -38.0407L19.1206 -38.0408L-78.9105 -15.0025L-78.9105 -15.0025L-176.942 8.03592L-150.901 118.845L-248.932 141.883L-222.89 252.693L-320.922 275.731L-294.88 386.54L-196.85 363.502L-98.8185 340.464L-124.859 229.654L-26.8279 206.616L71.2032 183.578L45.1617 72.7684L143.193 49.7301ZM-248.932 141.883L-346.963 164.922L-320.922 275.731L-222.891 252.693L-248.932 141.883ZM2521.98 -392.382L2548.03 -281.572L2548.03 -281.572L2574.07 -170.763L2574.07 -170.763L2600.11 -59.9541L2502.08 -36.9157L2476.04 -147.725L2378 -124.686L2351.96 -235.496L2449.99 -258.534L2423.95 -369.343L2521.98 -392.382ZM2351.96 -235.496L2253.93 -212.457L2227.89 -323.267L2325.92 -346.305L2351.96 -235.496ZM1443.64 -138.96L1345.61 -115.921L1371.65 -5.11205L1273.62 17.9263L1299.66 128.736L1325.7 239.545L1423.73 216.506L1521.76 193.468L1619.8 170.43L1593.75 59.6204L1619.8 170.43L1717.83 147.391L1815.86 124.353L1789.82 13.5437L1691.79 36.5821L1593.75 59.6204L1567.71 -51.1888L1469.68 -28.1504L1443.64 -138.96ZM953.485 -23.7677L1051.52 -46.8061L1077.56 64.0031L1175.59 40.9648L1273.62 17.9264L1299.66 128.736L1201.63 151.774L1103.6 174.812L1005.57 197.851L907.536 220.889L933.577 331.698L835.546 354.736L737.515 377.775L639.484 400.813L613.442 290.004L711.474 266.966L809.505 243.927L783.464 133.118L881.495 110.08L979.526 87.0415L953.485 -23.7677ZM613.442 290.004L515.411 313.042L489.37 202.233L587.401 179.195L613.442 290.004ZM169.234 160.539L267.266 137.501L293.307 248.31L195.276 271.349L169.234 160.539ZM515.411 313.043L417.38 336.081L319.349 359.119L345.39 469.928L247.359 492.967L273.4 603.776L371.432 580.738L397.473 691.547L495.504 668.508L469.462 557.699L567.494 534.661L593.535 645.47L495.504 668.508L521.545 779.318L547.586 890.127L645.618 867.089L743.649 844.05L769.69 954.859L671.659 977.898L697.7 1088.71L599.669 1111.75L573.628 1000.94L475.597 1023.97L501.638 1134.78L527.679 1245.59L625.71 1222.55L723.741 1199.52L697.7 1088.71L795.732 1065.67L821.773 1176.48L919.804 1153.44L1017.84 1130.4L991.794 1019.59L893.763 1042.63L795.732 1065.67L769.69 954.859L867.721 931.821L965.753 908.783L939.711 797.973L1037.74 774.935L1011.7 664.126L985.66 553.317L887.629 576.355L913.67 687.164L939.711 797.973L841.68 821.012L815.639 710.203L717.608 733.241L815.639 710.202L789.598 599.393L763.556 488.584L737.515 377.775L639.484 400.813L541.452 423.852L515.411 313.043ZM469.462 557.699L371.432 580.738L345.39 469.928L443.421 446.89L469.462 557.699ZM221.317 382.158L123.286 405.196L149.327 516.005L247.358 492.967L221.317 382.158ZM1619.8 170.43L1645.84 281.239L1547.81 304.277L1521.77 193.468L1619.8 170.43ZM1449.78 327.316L1423.73 216.507L1325.7 239.545L1351.74 350.354L1449.78 327.316ZM1227.67 262.583L1253.71 373.392L1279.75 484.202L1181.72 507.24L1207.76 618.049L1109.73 641.087L1083.69 530.278L1057.65 419.469L1155.68 396.431L1129.64 285.622L1227.67 262.583ZM1057.65 419.469L959.619 442.507L933.577 331.698L1031.61 308.66L1057.65 419.469ZM51.296 539.044L77.3373 649.853L-20.6941 672.891L-46.7354 562.082L51.296 539.044ZM-118.726 695.93L-144.767 585.12L-242.798 608.159L-216.757 718.968L-118.726 695.93ZM1841.9 235.162L1743.87 258.2L1769.91 369.01L1867.94 345.971L1841.9 235.162ZM-118.726 695.93L-20.6945 672.891L5.3468 783.701L-92.6846 806.739L-190.715 829.777L-216.756 718.968L-118.726 695.93ZM2652.19 161.664L2678.23 272.474L2580.2 295.512L2554.16 184.703L2652.19 161.664ZM2508.21 429.36L2482.17 318.55L2580.2 295.512L2606.24 406.321L2508.21 429.36ZM2508.21 429.36L2534.25 540.169L2632.28 517.131L2658.33 627.94L2684.37 738.749L2586.34 761.787L2560.29 650.978L2462.26 674.016L2436.22 563.207L2410.18 452.398L2508.21 429.36ZM1599.89 525.896L1573.85 415.086L1475.82 438.125L1501.86 548.934L1599.89 525.896ZM423.514 802.356L397.472 691.547L299.441 714.585L201.41 737.624L103.379 760.662L5.34721 783.7L31.3885 894.509L129.42 871.471L227.451 848.433L325.482 825.394L423.514 802.356ZM2116.09 521.513L2090.05 410.704L1992.01 433.742L1893.98 456.781L1920.02 567.59L1946.07 678.399L2044.1 655.361L2070.14 766.17L1972.11 789.208L1998.15 900.017L2096.18 876.979L2070.14 766.17L2168.17 743.131L2194.21 853.941L2292.24 830.902L2266.2 720.093L2240.16 609.284L2338.19 586.246L2436.22 563.207L2410.18 452.398L2312.15 475.437L2214.12 498.475L2116.09 521.513ZM2116.09 521.513L2142.13 632.322L2044.1 655.361L2018.06 544.552L2116.09 521.513ZM1821.99 590.628L1795.95 479.819L1697.92 502.857L1723.96 613.666L1821.99 590.628ZM1599.89 525.896L1625.93 636.705L1527.9 659.743L1501.86 548.934L1599.89 525.896ZM1259.85 839.667L1285.89 950.477L1383.92 927.438L1481.95 904.4L1507.99 1015.21L1606.02 992.171L1579.98 881.362L1678.01 858.323L1651.97 747.514L1553.94 770.552L1527.9 659.743L1429.87 682.782L1403.83 571.972L1305.8 595.011L1331.84 705.82L1429.87 682.782L1455.91 793.591L1357.88 816.629L1259.85 839.667ZM1161.82 862.706L1135.77 751.897L1233.81 728.858L1259.85 839.667L1161.82 862.706ZM1161.82 862.706L1187.86 973.515L1089.83 996.553L1063.78 885.744L1161.82 862.706ZM325.482 825.395L351.524 936.204L253.492 959.242L227.451 848.433L325.482 825.395ZM155.461 982.28L129.42 871.471L31.3886 894.51L57.4299 1005.32L155.461 982.28ZM-66.6429 917.548L-40.6015 1028.36L-138.633 1051.4L-164.674 940.586L-66.6429 917.548ZM403.606 1157.82L377.565 1047.01L279.533 1070.05L181.503 1093.09L83.4711 1116.13L-14.5602 1139.17L11.4811 1249.98L109.512 1226.94L207.544 1203.9L233.585 1314.71L331.616 1291.67L429.647 1268.63L403.606 1157.82ZM2364.23 697.055L2390.27 807.864L2292.24 830.902L2266.2 720.093L2364.23 697.055ZM1972.11 789.208L1874.08 812.246L1900.12 923.056L1998.15 900.017L1972.11 789.208Z" fill="url(#paint0_linear)"/>
<defs>
<linearGradient id="paint0_linear" x1="1516" y1="-40" x2="264.315" y2="1068.24" gradientUnits="userSpaceOnUse">
<stop stop-color="#678ADA"/>
<stop offset="0.992174" stop-color="#173960"/>
</linearGradient>
</defs>
</svg>
